<?xml version="1.0" encoding="iso-8859-1"?>
<!-- Uploaded to: SVG Repo, www.svgrepo.com, Generator: SVG Repo Mixer Tools -->
<svg version="1.1" id="Layer_1" xmlns="http://www.w3.org/2000/svg" xmlns:xlink="http://www.w3.org/1999/xlink" 
	 viewBox="0 0 512 512" xml:space="preserve">
<path style="fill:#9ED368;" d="M512,256.006C512,397.402,397.394,512.004,256.004,512C114.606,512.004,0,397.402,0,256.006
	C-0.007,114.61,114.606,0,256.004,0C397.394,0,512,114.614,512,256.006z"/>
<path style="fill:#8BC052;" d="M512,256.005c0-21.556-2.695-42.478-7.712-62.478c-0.109-0.105-0.21-0.217-0.32-0.32
	c-0.541-0.576-91.175-91.212-91.751-91.751c-6.811-7.254-16.413-11.856-27.124-11.856H126.908
	c-20.571,0-37.308,16.737-37.308,37.307v258.186c0,10.709,4.599,20.309,11.852,27.12c0.541,0.577,91.179,91.214,91.756,91.756
	c0.105,0.112,0.218,0.213,0.323,0.323c19.998,5.015,40.918,7.71,62.473,7.709C397.394,512.004,512,397.401,512,256.005z"/>
<g>
	<path style="fill:#F4F6F9;" d="M385.092,89.6H126.908c-20.571,0-37.308,16.737-37.308,37.308v258.186
		c0,20.57,16.737,37.307,37.308,37.307h258.186c20.57,0,37.307-16.737,37.307-37.308V126.908
		C422.4,106.337,405.663,89.6,385.092,89.6z M408.533,385.092c0,12.926-10.515,23.441-23.441,23.441H126.908
		c-12.926,0-23.441-10.515-23.441-23.441V126.908c0-12.926,10.515-23.441,23.441-23.441h258.186c12.925,0,23.44,10.515,23.44,23.441
		V385.092z"/>
	<path style="fill:#F4F6F9;" d="M229.97,186.667l-43.303,138.667h17.991l12.973-42.998h44.346l13.388,42.998h18.407l-43.092-138.667
		H229.97z M220.975,268.752l11.924-38.678c2.513-8.64,4.604-18.103,6.483-26.951h0.634c1.879,8.64,3.97,17.903,6.694,27.158
		l12.128,38.471H220.975z"/>
	<path style="fill:#F4F6F9;" d="M321.385,187.283c-6.272,0-10.876,4.729-10.876,11.111c0,6.169,4.393,10.903,10.671,10.903h0.205
		c6.693,0,10.882-4.735,10.882-10.903C332.267,192.012,327.874,187.283,321.385,187.283z"/>
	<rect x="312.811" y="225.749" style="fill:#F4F6F9;" width="17.569" height="99.584"/>
</g>
</svg>