<svg id="visual" viewBox="0 0 1980 1080" width="1980" height="1080" xmlns="http://www.w3.org/2000/svg" xmlns:xlink="http://www.w3.org/1999/xlink" version="1.1"><path d="M0 375L55 378C110 381 220 387 330 401.8C440 416.7 550 440.3 660 429.3C770 418.3 880 372.7 990 377.3C1100 382 1210 437 1320 463.3C1430 489.7 1540 487.3 1650 472.7C1760 458 1870 431 1925 417.5L1980 404L1980 1081L1925 1081C1870 1081 1760 1081 1650 1081C1540 1081 1430 1081 1320 1081C1210 1081 1100 1081 990 1081C880 1081 770 1081 660 1081C550 1081 440 1081 330 1081C220 1081 110 1081 55 1081L0 1081Z" fill="#2d0013"></path><path d="M0 506L55 512C110 518 220 530 330 539.8C440 549.7 550 557.3 660 553.2C770 549 880 533 990 540.2C1100 547.3 1210 577.7 1320 595.2C1430 612.7 1540 617.3 1650 620.7C1760 624 1870 626 1925 627L1980 628L1980 1081L1925 1081C1870 1081 1760 1081 1650 1081C1540 1081 1430 1081 1320 1081C1210 1081 1100 1081 990 1081C880 1081 770 1081 660 1081C550 1081 440 1081 330 1081C220 1081 110 1081 55 1081L0 1081Z" fill="#5b032a"></path><path d="M0 708L55 703.2C110 698.3 220 688.7 330 673.3C440 658 550 637 660 624.8C770 612.7 880 609.3 990 626.3C1100 643.3 1210 680.7 1320 706C1430 731.3 1540 744.7 1650 729.3C1760 714 1870 670 1925 648L1980 626L1980 1081L1925 1081C1870 1081 1760 1081 1650 1081C1540 1081 1430 1081 1320 1081C1210 1081 1100 1081 990 1081C880 1081 770 1081 660 1081C550 1081 440 1081 330 1081C220 1081 110 1081 55 1081L0 1081Z" fill="#8e0240"></path><path d="M0 831L55 828C110 825 220 819 330 806.8C440 794.7 550 776.3 660 785.2C770 794 880 830 990 844.2C1100 858.3 1210 850.7 1320 839.8C1430 829 1540 815 1650 809.8C1760 804.7 1870 808.3 1925 810.2L1980 812L1980 1081L1925 1081C1870 1081 1760 1081 1650 1081C1540 1081 1430 1081 1320 1081C1210 1081 1100 1081 990 1081C880 1081 770 1081 660 1081C550 1081 440 1081 330 1081C220 1081 110 1081 55 1081L0 1081Z" fill="#c50054"></path><path d="M0 881L55 889C110 897 220 913 330 924.8C440 936.7 550 944.3 660 950.8C770 957.3 880 962.7 990 955.7C1100 948.7 1210 929.3 1320 915.8C1430 902.3 1540 894.7 1650 909.5C1760 924.3 1870 961.7 1925 980.3L1980 999L1980 1081L1925 1081C1870 1081 1760 1081 1650 1081C1540 1081 1430 1081 1320 1081C1210 1081 1100 1081 990 1081C880 1081 770 1081 660 1081C550 1081 440 1081 330 1081C220 1081 110 1081 55 1081L0 1081Z" fill="#ff0066"></path></svg>